<svg xmlns="http://www.w3.org/2000/svg" xmlns:xlink="http://www.w3.org/1999/xlink" viewBox="0 0 1494.52 839.81"><defs><style>.cls-1{fill:url(#linear-gradient);}.cls-2{fill:none;stroke:#e1b365;stroke-miterlimit:10;stroke-width:4px;}.cls-3,.cls-4{fill:#e1b365;}.cls-4{font-size:180px;font-family:Baskerville;}.cls-5{letter-spacing:-0.05em;}.cls-6{letter-spacing:-0.09em;}</style><linearGradient id="linear-gradient" x1="758.19" y1="685.21" x2="770.65" y2="84.04" gradientTransform="translate(-8.12 -38.22) rotate(-1.19)" gradientUnits="userSpaceOnUse"><stop offset="0" stop-color="#2b421f"/><stop offset="0.29" stop-color="#2d4420"/><stop offset="0.46" stop-color="#334d22"/><stop offset="0.6" stop-color="#3d5b25"/><stop offset="0.71" stop-color="#4c6f2a"/><stop offset="0.82" stop-color="#5f8830"/><stop offset="0.92" stop-color="#77a838"/><stop offset="1" stop-color="#8dc63f"/></linearGradient></defs><title>Artboard 3</title><g id="logo_3" data-name="logo 3"><path id="tree-3" data-name="tree" class="cls-1" d="M659.13,631.14s56.31-.6,67.56-1.4,68.13-.85,73.75-1.53,66.48.55,71.5-1.64c-4.61-5.08-36.12-3.6-65-8.63,0,0-7.38-6.12-8.66-6.94a129.27,129.27,0,0,0-15-6c-2.69-.65-4.66-37.71-4.66-37.71s-.22-20.77,0-21.62S789,536.15,790.37,533s7.68-13.61,6.84-16.62.84-3.53,5.61-1c3.14,1.7,20.48,7.81,26.86,10.14s23.73-2.06,32.66-6.19,18.12,2.12,28.28,2.75,24.39-5.29,24.9-7.84,11.13-6.42,14.54-5.09,13.46-14.12,22.94-18.54,32.72-2.4,38.86-18.58,21.62-27,21.4-37.73,22.2-25.67,15.28-33.13,3-19.46-.41-21.51-4.66-12.29-1.12-18.28-2.45-13.15-2.3-19.35,6.59-16.47-6.48-22-6.07-7.41,4.84-24.25-2.93-19.09-16.54-23.59c-8.81-4.05,2.69-6.26,5.58-16.45s-7-26.33-12.39-27.06-7.43-18.44-10.36-24.29-7.16-19-15.13-23.34-15.74-25.59-20.86-28-.27-13.23-3.74-17.39-11.34-3.71-13.36-6.2-.52-11.25-2.24-12.91-16.91-.77-20-1.83-18-12.87-18.8-23.83-4.63-19.62-8.58-19.82-18-.75-24.49.51-15.07-20.25-18.81-24.4-11.7-17.67-19.23-17.34-30,4.85-35.34,6.93l-5.31,2.08s-10.34,3.88-15.68,4.27-6.56-4.09-15.85-3.9-17.47-.48-25.91.26-25.11-2.3-29.24,2-20,12.53-23,17.09S660.25,60,655.27,64.32s-17.8,11.07-21.09,15.08-9,12.86-7.84,15.93-1.17,11.57-6.47,13.65-22.21,15.67-29,16.66-16.57,15.55-19.32,18.7-10.42,13.74-17.14,15.85-9.47,18.5-13.64,21.12-10.56,20.21-3,29.91,8.44,26.58,3.7,28.93S522.32,253.22,523,259.41s1.23,18.56,3.25,21-8.56,8.06-11.06,9.8-.18,32.11-2.35,36.1-14,30.14-14.47,35.5,3.89,38.22,6.21,41.83,1.48,16.59,4.08,20.2,10.13,13,10.18,15.56,7.21,21.53,14,23.64,30.34,10.08,35.52,15,23,7.41,29.15,7.28,16.3-1.75,23.66-.21,16-1.46,24,3.45,4.81,14.26,9.94,17.25,17.78,2.17,22.26.67,16.86-1.76,23.66.07,12.48,4.25,17.64,8.93,12.5,5.37,15.34,6.44,4.31,4.13,5,7.5,3,16.93,2.94,19.65.36,12.85,0,14.83,0,11,.1,13.71c.11,4.59,2.06,22.39-.25,24.31s-5,13.72-16,15.64S687,621.93,685.61,622s-16.14.72-18.19,1.61-8.88,1.4-9.71,2.26Z"/><g id="VICTORIA_PARK" data-name="VICTORIA PARK"><g id="lines-2" data-name="lines"><line class="cls-2" x1="26.74" y1="639.68" x2="1472.29" y2="639.68"/><rect class="cls-3" x="25.54" y="631.88" width="2.4" height="15.6"/><rect class="cls-3" x="1471.09" y="631.88" width="2.4" height="15.6"/><line class="cls-2" x1="26.74" y1="800.17" x2="1472.29" y2="800.17"/><rect class="cls-3" x="25.54" y="792.37" width="2.4" height="15.6"/><rect class="cls-3" x="1471.09" y="792.37" width="2.4" height="15.6"/></g><text class="cls-4" transform="translate(33.54 780.77)">VIC<tspan class="cls-5" x="324.32" y="0">T</tspan><tspan x="441.65" y="0">ORIA </tspan><tspan class="cls-6" x="951.59" y="0">P</tspan><tspan x="1036.14" y="0">ARK</tspan></text></g></g></svg>